<?xml version="1.0" encoding="UTF-8" standalone="no"?>
<!DOCTYPE svg PUBLIC "-//W3C//DTD SVG 1.1//EN"
 "http://www.w3.org/Graphics/SVG/1.1/DTD/svg11.dtd">
<!-- Generated by graphviz version 13.1.2 (20250808.2320)
 -->
<!-- Pages: 1 -->
<svg width="1343pt" height="238pt"
 viewBox="0.00 0.00 1343.00 238.00" xmlns="http://www.w3.org/2000/svg" xmlns:xlink="http://www.w3.org/1999/xlink">
<g id="graph0" class="graph" transform="scale(1 1) rotate(0) translate(4 234)">
<polygon fill="white" stroke="none" points="-4,4 -4,-234 1339.38,-234 1339.38,4 -4,4"/>
<!-- 140018462097952 -->
<g id="node1" class="node">
<title>140018462097952</title>
<polygon fill="none" stroke="black" points="0,-193.5 0,-229.5 161,-229.5 161,-193.5 0,-193.5"/>
<text xml:space="preserve" text-anchor="middle" x="39.88" y="-206.7" font-family="Times,serif" font-size="14.00">data 0.2355</text>
<polyline fill="none" stroke="black" points="79.75,-194 79.75,-229.5"/>
<text xml:space="preserve" text-anchor="middle" x="120.38" y="-206.7" font-family="Times,serif" font-size="14.00">grad 0.0000</text>
</g>
<!-- 140018462098048* -->
<g id="node8" class="node">
<title>140018462098048*</title>
<ellipse fill="none" stroke="black" cx="224" cy="-183.5" rx="27" ry="18"/>
<text xml:space="preserve" text-anchor="middle" x="224" y="-178.45" font-family="Times,serif" font-size="14.00">*</text>
</g>
<!-- 140018462097952&#45;&gt;140018462098048* -->
<g id="edge12" class="edge">
<title>140018462097952&#45;&gt;140018462098048*</title>
<path fill="none" stroke="black" d="M161.35,-195.7C170.09,-193.97 178.64,-192.28 186.46,-190.73"/>
<polygon fill="black" stroke="black" points="187.08,-194.18 196.21,-188.8 185.72,-187.31 187.08,-194.18"/>
</g>
<!-- 140018462099008 -->
<g id="node2" class="node">
<title>140018462099008</title>
<polygon fill="none" stroke="black" points="289.25,-55.5 289.25,-91.5 450.25,-91.5 450.25,-55.5 289.25,-55.5"/>
<text xml:space="preserve" text-anchor="middle" x="329.12" y="-68.7" font-family="Times,serif" font-size="14.00">data 0.0665</text>
<polyline fill="none" stroke="black" points="369,-56 369,-91.5"/>
<text xml:space="preserve" text-anchor="middle" x="409.62" y="-68.7" font-family="Times,serif" font-size="14.00">grad 0.0000</text>
</g>
<!-- 140018462407744* -->
<g id="node4" class="node">
<title>140018462407744*</title>
<ellipse fill="none" stroke="black" cx="515.5" cy="-73.5" rx="27" ry="18"/>
<text xml:space="preserve" text-anchor="middle" x="515.5" y="-68.45" font-family="Times,serif" font-size="14.00">*</text>
</g>
<!-- 140018462099008&#45;&gt;140018462407744* -->
<g id="edge9" class="edge">
<title>140018462099008&#45;&gt;140018462407744*</title>
<path fill="none" stroke="black" d="M450.61,-73.5C459.73,-73.5 468.67,-73.5 476.85,-73.5"/>
<polygon fill="black" stroke="black" points="476.69,-77 486.69,-73.5 476.69,-70 476.69,-77"/>
</g>
<!-- 140018462407744 -->
<g id="node3" class="node">
<title>140018462407744</title>
<polygon fill="none" stroke="black" points="578.5,-55.5 578.5,-91.5 744,-91.5 744,-55.5 578.5,-55.5"/>
<text xml:space="preserve" text-anchor="middle" x="620.62" y="-68.7" font-family="Times,serif" font-size="14.00">data &#45;0.1331</text>
<polyline fill="none" stroke="black" points="662.75,-56 662.75,-91.5"/>
<text xml:space="preserve" text-anchor="middle" x="703.38" y="-68.7" font-family="Times,serif" font-size="14.00">grad 0.0000</text>
</g>
<!-- 140018462404432+ -->
<g id="node12" class="node">
<title>140018462404432+</title>
<ellipse fill="none" stroke="black" cx="807" cy="-100.5" rx="27" ry="18"/>
<text xml:space="preserve" text-anchor="middle" x="807" y="-95.45" font-family="Times,serif" font-size="14.00">+</text>
</g>
<!-- 140018462407744&#45;&gt;140018462404432+ -->
<g id="edge8" class="edge">
<title>140018462407744&#45;&gt;140018462404432+</title>
<path fill="none" stroke="black" d="M744.2,-88.89C753,-90.54 761.58,-92.16 769.42,-93.63"/>
<polygon fill="black" stroke="black" points="768.72,-97.06 779.2,-95.47 770.01,-90.18 768.72,-97.06"/>
</g>
<!-- 140018462407744*&#45;&gt;140018462407744 -->
<g id="edge1" class="edge">
<title>140018462407744*&#45;&gt;140018462407744</title>
<path fill="none" stroke="black" d="M542.87,-73.5C549.97,-73.5 558.07,-73.5 566.64,-73.5"/>
<polygon fill="black" stroke="black" points="566.59,-77 576.59,-73.5 566.59,-70 566.59,-77"/>
</g>
<!-- 140018462404672 -->
<g id="node5" class="node">
<title>140018462404672</title>
<polygon fill="none" stroke="black" points="1174.38,-82.5 1174.38,-118.5 1335.38,-118.5 1335.38,-82.5 1174.38,-82.5"/>
<text xml:space="preserve" text-anchor="middle" x="1214.25" y="-95.7" font-family="Times,serif" font-size="14.00">data 0.0000</text>
<polyline fill="none" stroke="black" points="1254.13,-83 1254.13,-118.5"/>
<text xml:space="preserve" text-anchor="middle" x="1294.75" y="-95.7" font-family="Times,serif" font-size="14.00">grad 1.0000</text>
</g>
<!-- 140018462404672ReLU -->
<g id="node6" class="node">
<title>140018462404672ReLU</title>
<ellipse fill="none" stroke="black" cx="1104.94" cy="-100.5" rx="33.44" ry="18"/>
<text xml:space="preserve" text-anchor="middle" x="1104.94" y="-95.45" font-family="Times,serif" font-size="14.00">ReLU</text>
</g>
<!-- 140018462404672ReLU&#45;&gt;140018462404672 -->
<g id="edge2" class="edge">
<title>140018462404672ReLU&#45;&gt;140018462404672</title>
<path fill="none" stroke="black" d="M1138.77,-100.5C1146.11,-100.5 1154.24,-100.5 1162.69,-100.5"/>
<polygon fill="black" stroke="black" points="1162.43,-104 1172.43,-100.5 1162.43,-97 1162.43,-104"/>
</g>
<!-- 140018462098048 -->
<g id="node7" class="node">
<title>140018462098048</title>
<polygon fill="none" stroke="black" points="289.25,-165.5 289.25,-201.5 450.25,-201.5 450.25,-165.5 289.25,-165.5"/>
<text xml:space="preserve" text-anchor="middle" x="329.12" y="-178.7" font-family="Times,serif" font-size="14.00">data 0.2355</text>
<polyline fill="none" stroke="black" points="369,-166 369,-201.5"/>
<text xml:space="preserve" text-anchor="middle" x="409.62" y="-178.7" font-family="Times,serif" font-size="14.00">grad 0.0000</text>
</g>
<!-- 140018462403952+ -->
<g id="node14" class="node">
<title>140018462403952+</title>
<ellipse fill="none" stroke="black" cx="515.5" cy="-128.5" rx="27" ry="18"/>
<text xml:space="preserve" text-anchor="middle" x="515.5" y="-123.45" font-family="Times,serif" font-size="14.00">+</text>
</g>
<!-- 140018462098048&#45;&gt;140018462403952+ -->
<g id="edge13" class="edge">
<title>140018462098048&#45;&gt;140018462403952+</title>
<path fill="none" stroke="black" d="M429.08,-165.07C436.99,-162.33 444.98,-159.43 452.5,-156.5 462.41,-152.64 473.03,-148.02 482.62,-143.67"/>
<polygon fill="black" stroke="black" points="483.94,-146.92 491.56,-139.55 481.01,-140.56 483.94,-146.92"/>
</g>
<!-- 140018462098048*&#45;&gt;140018462098048 -->
<g id="edge3" class="edge">
<title>140018462098048*&#45;&gt;140018462098048</title>
<path fill="none" stroke="black" d="M251.37,-183.5C259.17,-183.5 268.2,-183.5 277.7,-183.5"/>
<polygon fill="black" stroke="black" points="277.52,-187 287.52,-183.5 277.52,-180 277.52,-187"/>
</g>
<!-- 140018462098144 -->
<g id="node9" class="node">
<title>140018462098144</title>
<polygon fill="none" stroke="black" points="287,-0.5 287,-36.5 452.5,-36.5 452.5,-0.5 287,-0.5"/>
<text xml:space="preserve" text-anchor="middle" x="329.12" y="-13.7" font-family="Times,serif" font-size="14.00">data &#45;2.0000</text>
<polyline fill="none" stroke="black" points="371.25,-1 371.25,-36.5"/>
<text xml:space="preserve" text-anchor="middle" x="411.88" y="-13.7" font-family="Times,serif" font-size="14.00">grad 0.0000</text>
</g>
<!-- 140018462098144&#45;&gt;140018462407744* -->
<g id="edge6" class="edge">
<title>140018462098144&#45;&gt;140018462407744*</title>
<path fill="none" stroke="black" d="M426.38,-36.88C435.16,-39.97 444.11,-43.24 452.5,-46.5 462.28,-50.3 472.79,-54.73 482.32,-58.9"/>
<polygon fill="black" stroke="black" points="480.64,-61.98 491.2,-62.83 483.47,-55.58 480.64,-61.98"/>
</g>
<!-- 140018462098720 -->
<g id="node10" class="node">
<title>140018462098720</title>
<polygon fill="none" stroke="black" points="287,-110.5 287,-146.5 452.5,-146.5 452.5,-110.5 287,-110.5"/>
<text xml:space="preserve" text-anchor="middle" x="329.12" y="-123.7" font-family="Times,serif" font-size="14.00">data &#45;0.2683</text>
<polyline fill="none" stroke="black" points="371.25,-111 371.25,-146.5"/>
<text xml:space="preserve" text-anchor="middle" x="411.88" y="-123.7" font-family="Times,serif" font-size="14.00">grad 0.0000</text>
</g>
<!-- 140018462098720&#45;&gt;140018462403952+ -->
<g id="edge10" class="edge">
<title>140018462098720&#45;&gt;140018462403952+</title>
<path fill="none" stroke="black" d="M452.7,-128.5C461.14,-128.5 469.4,-128.5 476.98,-128.5"/>
<polygon fill="black" stroke="black" points="476.77,-132 486.77,-128.5 476.77,-125 476.77,-132"/>
</g>
<!-- 140018462404432 -->
<g id="node11" class="node">
<title>140018462404432</title>
<polygon fill="none" stroke="black" points="870,-82.5 870,-118.5 1035.5,-118.5 1035.5,-82.5 870,-82.5"/>
<text xml:space="preserve" text-anchor="middle" x="912.12" y="-95.7" font-family="Times,serif" font-size="14.00">data &#45;0.1659</text>
<polyline fill="none" stroke="black" points="954.25,-83 954.25,-118.5"/>
<text xml:space="preserve" text-anchor="middle" x="994.88" y="-95.7" font-family="Times,serif" font-size="14.00">grad 0.0000</text>
</g>
<!-- 140018462404432&#45;&gt;140018462404672ReLU -->
<g id="edge14" class="edge">
<title>140018462404432&#45;&gt;140018462404672ReLU</title>
<path fill="none" stroke="black" d="M1035.87,-100.5C1044.05,-100.5 1052.12,-100.5 1059.68,-100.5"/>
<polygon fill="black" stroke="black" points="1059.58,-104 1069.58,-100.5 1059.58,-97 1059.58,-104"/>
</g>
<!-- 140018462404432+&#45;&gt;140018462404432 -->
<g id="edge4" class="edge">
<title>140018462404432+&#45;&gt;140018462404432</title>
<path fill="none" stroke="black" d="M834.37,-100.5C841.47,-100.5 849.57,-100.5 858.14,-100.5"/>
<polygon fill="black" stroke="black" points="858.09,-104 868.09,-100.5 858.09,-97 858.09,-104"/>
</g>
<!-- 140018462403952 -->
<g id="node13" class="node">
<title>140018462403952</title>
<polygon fill="none" stroke="black" points="578.5,-110.5 578.5,-146.5 744,-146.5 744,-110.5 578.5,-110.5"/>
<text xml:space="preserve" text-anchor="middle" x="620.62" y="-123.7" font-family="Times,serif" font-size="14.00">data &#45;0.0328</text>
<polyline fill="none" stroke="black" points="662.75,-111 662.75,-146.5"/>
<text xml:space="preserve" text-anchor="middle" x="703.38" y="-123.7" font-family="Times,serif" font-size="14.00">grad 0.0000</text>
</g>
<!-- 140018462403952&#45;&gt;140018462404432+ -->
<g id="edge7" class="edge">
<title>140018462403952&#45;&gt;140018462404432+</title>
<path fill="none" stroke="black" d="M744.2,-112.54C753,-110.82 761.58,-109.15 769.42,-107.62"/>
<polygon fill="black" stroke="black" points="770.05,-111.07 779.2,-105.72 768.71,-104.2 770.05,-111.07"/>
</g>
<!-- 140018462403952+&#45;&gt;140018462403952 -->
<g id="edge5" class="edge">
<title>140018462403952+&#45;&gt;140018462403952</title>
<path fill="none" stroke="black" d="M542.87,-128.5C549.97,-128.5 558.07,-128.5 566.64,-128.5"/>
<polygon fill="black" stroke="black" points="566.59,-132 576.59,-128.5 566.59,-125 566.59,-132"/>
</g>
<!-- 140018462098384 -->
<g id="node15" class="node">
<title>140018462098384</title>
<polygon fill="none" stroke="black" points="0,-138.5 0,-174.5 161,-174.5 161,-138.5 0,-138.5"/>
<text xml:space="preserve" text-anchor="middle" x="39.88" y="-151.7" font-family="Times,serif" font-size="14.00">data 1.0000</text>
<polyline fill="none" stroke="black" points="79.75,-139 79.75,-174.5"/>
<text xml:space="preserve" text-anchor="middle" x="120.38" y="-151.7" font-family="Times,serif" font-size="14.00">grad 0.0000</text>
</g>
<!-- 140018462098384&#45;&gt;140018462098048* -->
<g id="edge11" class="edge">
<title>140018462098384&#45;&gt;140018462098048*</title>
<path fill="none" stroke="black" d="M161.35,-171.74C170.09,-173.4 178.64,-175.04 186.46,-176.53"/>
<polygon fill="black" stroke="black" points="185.73,-179.95 196.21,-178.39 187.04,-173.08 185.73,-179.95"/>
</g>
</g>
</svg>
